# xmcd
#
# Track frame offsets:
#	150
#	13176
#	26943
#	46905
#	61197
#	79187
#	90029
#	104847
#	118377
#	123751
#	132373
#	157494
#	183754
#
# Disc length: 2938 seconds
#
# Revision: 1
# Processed by: cddbd v1.5.2PL0 Copyright (c) Steve Scherf et al.
# Submitted via: audiograbber 1.83.01
#
DISCID=af0b780d
DTITLE=Love of Lesbian - Maniobras de Escapismo - Cd1
DYEAR=2010
DGENRE=Indie
TTITLE0=Carta a todas tus Catástrofes
TTITLE1=Maniobras de Escapismo
TTITLE2=Domingo Astromántico
TTITLE3=Mi Personulidad
TTITLE4=Houston, tenemos un Poema
TTITLE5=Mi primera Combustión
TTITLE6=Música de Ascensores
TTITLE7=Marlene, la vecina del Ártico
TTITLE8=Los niños del Mañana
TTITLE9=Me llaman Octubre
TTITLE10=Limousinas
TTITLE11=Mon petit Cabroin
TTITLE12=Love song Nº79.899
EXTD=CRG
EXTT0=
EXTT1=
EXTT2=
EXTT3=
EXTT4=
EXTT5=
EXTT6=
EXTT7=
EXTT8=
EXTT9=
EXTT10=
EXTT11=
EXTT12=
PLAYORDER=
